<mxfile host="app.diagrams.net" modified="2024-06-03T06:43:00.056Z" agent="Mozilla/5.0 (Windows NT 10.0; Win64; x64) AppleWebKit/537.36 (KHTML, like Gecko) Chrome/125.0.0.0 Safari/537.36 Edg/125.0.0.0" version="24.4.13" etag="Pf90_qdB9CtMlv9E0c60" type="github">
  <diagram name="第 1 页" id="l9qKeQ_GmCrpYcBxf-9x">
    <mxGraphModel>
      <root>
        <mxCell id="0" />
        <mxCell id="1" parent="0" />
      </root>
    </mxGraphModel>
  </diagram>
</mxfile>
